<svg width="162" height="162" viewBox="0 0 162 162" fill="none" xmlns="http://www.w3.org/2000/svg">
<path fill-rule="evenodd" clip-rule="evenodd" d="M137.485 8.17168H24.515C15.4888 8.17168 8.17168 15.4888 8.17168 24.515V137.485C8.17168 146.511 15.4888 153.828 24.515 153.828H137.485C146.511 153.828 153.828 146.511 153.828 137.485V24.515C153.828 15.4888 146.511 8.17168 137.485 8.17168ZM24.515 0H137.485C151.024 0 162 10.9758 162 24.515V137.485C162 151.024 151.024 162 137.485 162H24.515C10.9757 162 0 151.024 0 137.485V24.515C0 10.9757 10.9758 0 24.515 0Z" fill="white"/>
<path fill-rule="evenodd" clip-rule="evenodd" d="M81.2342 39.093C56.0334 39.093 35.7102 55.3514 35.7102 75.0893C35.7102 87.901 44.1647 99.1194 56.8464 105.525L52.5541 121.556C52.4732 121.797 52.4607 122.055 52.5181 122.301C52.5756 122.548 52.7006 122.775 52.8793 122.954C53.1398 123.184 53.4749 123.311 53.8223 123.312C54.1102 123.289 54.3835 123.175 54.6027 122.987L73.0724 110.533C75.7988 110.909 78.5471 111.105 81.2992 111.118C106.468 111.118 126.823 94.8597 126.823 75.0893C126.823 55.3188 106.402 39.093 81.2342 39.093ZM51.6416 69.3987H46.6664C46.0498 69.4165 45.4408 69.2586 44.9105 68.9434C44.6751 68.7959 44.4727 68.6012 44.316 68.3718C44.1593 68.1424 44.0517 67.883 44 67.6101C43.9842 67.437 43.9842 67.2631 44 67.0901C43.9846 66.7662 44.0474 66.4433 44.1833 66.1489C44.3191 65.8546 44.524 65.5974 44.7804 65.3991C45.3473 64.9885 46.0316 64.7717 46.7315 64.7811H61.7219C62.3434 64.7592 62.9566 64.9296 63.4778 65.2689C63.7188 65.4099 63.9255 65.6028 64.0829 65.8334C64.2404 66.0639 64.3447 66.3265 64.3883 66.6022C64.4042 66.7644 64.4042 66.9279 64.3883 67.0901C64.4036 67.4186 64.3409 67.7459 64.2052 68.0455C64.0696 68.3451 63.8649 68.608 63.6079 68.8132C63.0548 69.2232 62.3771 69.4301 61.6893 69.3987H56.8768V86.5027C56.8964 86.8671 56.84 87.2314 56.7112 87.5729C56.5825 87.9143 56.3842 88.2254 56.1289 88.4862C55.8841 88.7356 55.5899 88.931 55.2651 89.0598C54.9403 89.1886 54.5921 89.2479 54.2429 89.234C53.6322 89.2515 53.0345 89.0563 52.552 88.6815C52.0927 88.3154 51.781 87.7956 51.6741 87.218C51.6419 86.9806 51.6419 86.7401 51.6741 86.5027L51.6416 69.3987ZM66.7672 64.7486C66.3031 65.0509 65.9672 65.5143 65.8242 66.0494L58.9306 84.7467C58.894 84.8472 58.8498 84.9504 58.805 85.0546C58.6905 85.3213 58.5729 85.5954 58.5729 85.8526C58.517 86.1754 58.517 86.5051 58.5729 86.8279C58.5556 87.0117 58.5556 87.1969 58.5729 87.3808C58.6681 87.92 58.9573 88.4055 59.3858 88.7463C59.8257 89.0765 60.3643 89.2485 60.9141 89.2341C61.4217 89.2979 61.9358 89.1838 62.3686 88.911C62.8015 88.6382 63.1264 88.2239 63.2879 87.7384L64.6536 83.7389H73.2056L74.5713 87.7384C74.7368 88.2145 75.0579 88.621 75.4826 88.8923C75.9073 89.1637 76.411 89.284 76.9126 89.2341C77.2387 89.2419 77.5629 89.1825 77.8651 89.0595C78.1672 88.9364 78.4407 88.7523 78.6685 88.5188C78.9036 88.306 79.0894 88.0444 79.213 87.7523C79.3365 87.4603 79.3949 87.1448 79.3839 86.8279C79.395 86.6221 79.395 86.416 79.3839 86.2102C79.2709 85.7148 79.1298 85.226 78.9612 84.7467L72.4577 66.3745C72.3022 65.7234 71.9076 65.1547 71.3521 64.7811C70.828 64.4832 70.2313 64.3368 69.6287 64.3584H68.3931C67.8252 64.3331 67.2617 64.4683 66.7672 64.7486ZM65.9868 80.0644L69.0759 70.3093L72.1325 80.0644H65.9868ZM80.1286 67.0905C80.0955 66.3607 80.3527 65.6476 80.8439 65.107C81.0936 64.8551 81.3934 64.6582 81.7239 64.5294C82.0543 64.4006 82.4081 64.3423 82.7624 64.3587C83.3716 64.3516 83.966 64.5461 84.4533 64.9117C84.905 65.2931 85.2049 65.8237 85.2988 66.4073C85.3308 66.6338 85.3308 66.864 85.2988 67.0905V84.1945H94.241C94.8608 84.1864 95.4701 84.3553 95.9969 84.6819C96.2337 84.8279 96.4371 85.0223 96.5939 85.252C96.7508 85.4816 96.8576 85.7416 96.9074 86.0153V86.5031C96.9229 86.8269 96.86 87.1495 96.7241 87.4438C96.5883 87.7382 96.3835 87.9957 96.127 88.1941C95.5601 88.6046 94.8759 88.8211 94.176 88.8117H83.1852C82.4852 88.8567 81.7894 88.6745 81.2016 88.2917C80.6759 87.8986 80.3256 87.3147 80.2261 86.6658C80.2023 86.3086 80.2023 85.9498 80.2261 85.5925L80.1286 67.0905ZM98.2095 65.1071C97.7301 65.6548 97.4747 66.363 97.4941 67.0906L97.2991 86.3405C97.2669 86.5779 97.2669 86.8188 97.2991 87.0562C97.4059 87.6338 97.7177 88.1532 98.177 88.5193C98.6495 88.8893 99.2354 89.0848 99.8354 89.0722C100.194 89.0873 100.553 89.0286 100.888 88.9C101.224 88.7714 101.529 88.5752 101.786 88.324C102.266 87.7763 102.521 87.0681 102.502 86.3405V80.9104L105.396 77.8861L111.444 87.6413C111.695 88.0986 112.051 88.4889 112.485 88.7793C112.885 88.9896 113.333 89.0909 113.785 89.0722C114.465 89.0818 115.129 88.8642 115.671 88.4542C115.96 88.2089 116.184 87.8975 116.326 87.5464C116.467 87.1953 116.522 86.8149 116.484 86.4382V86.2758C116.305 85.7291 116.041 85.2132 115.704 84.7472V84.4221L109.2 74.3419L114.598 68.4235C114.836 68.1548 115.043 67.8607 115.216 67.5459C115.385 67.2486 115.475 66.9124 115.476 66.5702C115.46 66.4952 115.46 66.4178 115.476 66.3428C115.489 66.2784 115.489 66.2119 115.476 66.1475C115.43 65.885 115.331 65.6347 115.186 65.4112C115.041 65.1877 114.852 64.9956 114.631 64.8467C114.161 64.526 113.606 64.3558 113.037 64.3589C112.649 64.3513 112.266 64.4529 111.932 64.6518C111.577 64.9343 111.241 65.2381 110.924 65.562L102.697 75.0572V67.0906C102.713 66.8633 102.713 66.6348 102.697 66.4075C102.592 65.8202 102.28 65.2899 101.819 64.9118C101.287 64.5241 100.637 64.3317 99.9795 64.3672C99.322 64.4028 98.6969 64.6643 98.2095 65.1071Z" fill="white"/>
</svg>
