<svg width="29" height="55" viewBox="0 0 29 55" fill="none" xmlns="http://www.w3.org/2000/svg">
<path fill-rule="evenodd" clip-rule="evenodd" d="M22.6405 54.1634C21.3329 50.7818 19.5543 47.4437 18.9958 45.5302C18.8116 44.8995 18.6871 44.0866 19.2546 44.7868C20.6247 46.4764 21.8584 48.7079 22.5758 51.0194C22.5549 50.4707 22.5693 49.9154 22.6236 49.1547C22.9856 44.0887 22.5709 38.6118 21.2203 33.5125C20.1025 29.2923 18.2991 25.0471 15.4914 21.6591C14.538 23.4488 13.4189 25.1069 12.0757 26.6395C9.21294 29.9066 4.33587 32.3559 1.17363 27.9504C-1.45498 24.2877 1.08161 19.607 4.91221 18.0695C7.67361 16.9611 10.0483 17.5026 12.3533 18.3289C13.3277 18.6783 14.239 19.1836 15.0877 19.8204C19.5201 7.87783 12.301 -0.371861 1.90062 0.39711C14.2386 -2.31985 20.5706 9.96337 15.9258 20.509C22.949 26.7991 25.259 42.424 23.2433 51.2634C23.9794 49.9716 25.1751 48.7184 26.3852 47.7789C26.5642 47.6397 27.23 47.0249 27.6597 46.9426C27.8193 46.912 27.9469 46.9549 28.0045 47.1228C28.0373 47.2185 28.014 47.336 27.9405 47.472C27.7263 47.8672 26.7882 48.8439 25.8819 49.8081C24.5373 51.2384 23.5873 52.4191 22.6405 54.1634ZM14.5902 21.0617C13.5897 22.9398 12.3158 24.7666 10.8815 26.3371C8.57011 28.8681 5.41861 30.3918 2.91939 28.2868C1.37277 26.9842 0.977612 25.2221 1.47968 23.4871C3.28846 17.2376 11.2684 17.899 14.5902 21.0617Z" fill="white"/>
</svg>
